<svg xmlns="http://www.w3.org/2000/svg" viewBox="0 0 24 24" width="24" height="24" fill="#ffffff">
  <path d="M8.691 2.188C3.891 2.188 0 5.476 0 9.53c0 2.212 1.17 4.203 3.002 5.55a.59.59 0 0 1 .213.665l-.39 1.48c-.019.07-.048.141-.048.213 0 .163.13.295.29.295a.32.32 0 0 0 .186-.067l2.145-1.27a.886.886 0 0 1 .437-.131c.07 0 .14.01.21.028a10.262 10.262 0 0 0 2.646.344c.433 0 .858-.027 1.278-.08-.538-1.692-.82-3.628-.82-5.673 0-4.031 3.915-7.302 8.737-7.302.15 0 .3.005.448.014-1.224-3.867-5.689-6.408-10.643-6.408zm-.485 4.78a1.25 1.25 0 0 1 1.247 1.247 1.25 1.25 0 0 1-1.247 1.247 1.25 1.25 0 0 1-1.246-1.247 1.25 1.25 0 0 1 1.246-1.247zm5.22 0a1.25 1.25 0 0 1 1.246 1.247 1.25 1.25 0 0 1-1.247 1.247 1.25 1.25 0 0 1-1.247-1.247 1.25 1.25 0 0 1 1.247-1.247zm1.837 4.173c4.507 0 8.175 3.02 8.175 6.75 0 3.73-3.668 6.75-8.175 6.75-.56 0-1.109-.043-1.64-.125a.819.819 0 0 0-.196-.024.82.82 0 0 0-.409.118l-2.126 1.2a.298.298 0 0 1-.174.056c-.153 0-.279-.126-.279-.28 0-.068.027-.137.046-.204l.37-1.38a.553.553 0 0 0-.205-.618C9.456 21.116 8.34 19.274 8.34 17.219c0-3.73 3.668-6.75 8.175-6.75zm-4.207 3.26a1.167 1.167 0 0 0-1.167 1.166 1.167 1.167 0 0 0 1.167 1.166 1.167 1.167 0 0 0 1.166-1.166 1.167 1.167 0 0 0-1.166-1.166zm6.749 0a1.167 1.167 0 0 0-1.167 1.166 1.167 1.167 0 0 0 1.167 1.166 1.167 1.167 0 0 0 1.166-1.166 1.167 1.167 0 0 0-1.166-1.166z"/>
</svg>